<svg width="23" height="23" viewBox="0 0 23 23" fill="none" xmlns="http://www.w3.org/2000/svg">
<path fill-rule="evenodd" clip-rule="evenodd" d="M22.9987 11.5C22.9987 17.8513 17.9456 23 11.7122 23C5.4789 23 0.425781 17.8513 0.425781 11.5C0.425781 5.14873 5.4789 0 11.7122 0C17.9456 0 22.9987 5.14873 22.9987 11.5ZM12.1167 8.48981C11.0189 8.95505 8.82492 9.91798 5.53468 11.3786C5.0004 11.5951 4.72052 11.8069 4.69504 12.014C4.65198 12.3639 5.08211 12.5017 5.66784 12.6894C5.74752 12.7149 5.83007 12.7414 5.9147 12.7694C6.49097 12.9603 7.26615 13.1836 7.66914 13.1924C8.03468 13.2005 8.44267 13.0469 8.89311 12.7318C11.9673 10.6174 13.5542 9.54865 13.6538 9.52561C13.7241 9.50936 13.8215 9.48892 13.8875 9.54869C13.9535 9.60845 13.947 9.72164 13.94 9.752C13.8974 9.93709 12.209 11.5365 11.3352 12.3642C11.0628 12.6222 10.8696 12.8053 10.8301 12.8471C10.7416 12.9407 10.6514 13.0293 10.5648 13.1144C10.0294 13.6403 9.62792 14.0346 10.587 14.6786C11.0479 14.9881 11.4167 15.244 11.7846 15.4993C12.1864 15.7781 12.5872 16.0562 13.1058 16.4025C13.2379 16.4908 13.364 16.5824 13.4869 16.6717C13.9546 17.0114 14.3747 17.3165 14.8937 17.2679C15.1953 17.2396 15.5068 16.9506 15.665 16.0888C16.0389 14.0522 16.7739 9.63935 16.9437 7.82093C16.9586 7.66162 16.9399 7.45772 16.9248 7.36822C16.9098 7.27871 16.8784 7.15119 16.7642 7.05678C16.629 6.94498 16.4202 6.9214 16.3269 6.92308C15.9024 6.9307 15.2511 7.16145 12.1167 8.48981Z" fill="#0078FF"/>
</svg>
