<svg width="22" height="23" viewBox="0 0 22 23" fill="none" xmlns="http://www.w3.org/2000/svg">
<path d="M21.7809 6.89961C21.7809 6.89961 21.566 5.31387 20.9043 4.61758C20.0664 3.70117 19.1297 3.69668 18.7 3.64277C15.6234 3.40918 11.0043 3.40918 11.0043 3.40918H10.9957C10.9957 3.40918 6.37656 3.40918 3.3 3.64277C2.87031 3.69668 1.93359 3.70117 1.0957 4.61758C0.433984 5.31387 0.223438 6.89961 0.223438 6.89961C0.223438 6.89961 0 8.76387 0 10.6236V12.3666C0 14.2264 0.219141 16.0906 0.219141 16.0906C0.219141 16.0906 0.433984 17.6764 1.09141 18.3727C1.9293 19.2891 3.0293 19.2576 3.51914 19.3564C5.28086 19.5316 11 19.5855 11 19.5855C11 19.5855 15.6234 19.5766 18.7 19.3475C19.1297 19.2936 20.0664 19.2891 20.9043 18.3727C21.566 17.6764 21.7809 16.0906 21.7809 16.0906C21.7809 16.0906 22 14.2309 22 12.3666V10.6236C22 8.76387 21.7809 6.89961 21.7809 6.89961ZM8.72695 14.4824V8.01816L14.6695 11.2615L8.72695 14.4824Z" fill="#0078FF"/>
</svg>
